Coordinates
version=1
nRows=8
nColumns=34
inDegrees=yes

Units are S.I. units (second, meters, Newtons, ...)
Angles are in degrees.

endheader
time	pelvis_tilt	pelvis_list	pelvis_rotation	pelvis_tx	pelvis_ty	pelvis_tz	hip_flexion_r	hip_adduction_r	hip_rotation_r	knee_angle_r	ankle_angle_r	subtalar_angle_r	mtp_angle_r	hip_flexion_l	hip_adduction_l	hip_rotation_l	knee_angle_l	socket_flexion	socket_adduction	socket_rotation	socket_tx	socket_ty	socket_tz	pros_ankle_rx	pros_ankle_ry	pros_ankle_rz	pros_ankle_tx	pros_ankle_ty	pros_ankle_tz	foot_flex	lumbar_extension	lumbar_bending	lumbar_rotation
      0.29583333	      2.59721511	     -3.66875020	      0.23103196	     -0.36335133	      1.05230551	      0.37084341	      7.63013944	     -0.27576265	     -9.69505694	    -61.82662764	     -0.52507301	      5.58480215	     15.94798617	      8.84912400	     -3.18450389	      0.96749986	    -21.58198461	      0.00000000	      0.00000000	      0.00000000	      0.00000000	      0.00000000	      0.00000000	      0.00000000	      0.00000000	      0.00000000	      0.00000000	      0.00000000	      0.00000000	      5.91958670	    -23.29382177	     -7.39256199	      0.94932119
      0.30000000	      2.69629466	     -3.79937002	      0.29656420	     -0.35784567	      1.05316780	      0.37053250	      8.04451949	     -0.15106742	     -9.82237741	    -61.60930065	      0.35769326	      5.71159380	     15.97986551	      8.30239598	     -3.30758627	      1.01057203	    -21.38348207	      0.00000000	      0.00000000	      0.00000000	      0.00000000	      0.00000000	      0.00000000	      0.00000000	      0.00000000	      0.00000000	      0.00000000	      0.00000000	      0.00000000	      6.07777945	    -23.34300052	     -7.18379868	      0.83745261
      0.30416667	      2.78772824	     -3.93679504	      0.36102533	     -0.35234850	      1.05401749	      0.37021810	      8.45279945	     -0.02204086	     -9.95953725	    -61.32919707	      1.19221342	      5.85321680	     16.00212282	      7.76277712	     -3.43886829	      1.05513270	    -21.18337580	      0.00000000	      0.00000000	      0.00000000	      0.00000000	      0.00000000	      0.00000000	      0.00000000	      0.00000000	      0.00000000	      0.00000000	      0.00000000	      0.00000000	      6.22545441	    -23.38122517	     -6.95593195	      0.73571347
      0.30833333	      2.87003469	     -4.07929523	      0.42467792	     -0.34689130	      1.05483136	      0.36990181	      8.86520480	      0.10560687	    -10.11163558	    -61.00899160	      1.98893496	      6.03639683	     16.00440062	      7.23997245	     -3.57590151	      1.10422295	    -20.98740785	      0.00000000	      0.00000000	      0.00000000	      0.00000000	      0.00000000	      0.00000000	      0.00000000	      0.00000000	      0.00000000	      0.00000000	      0.00000000	      0.00000000	      6.37154204	    -23.44051184	     -6.73486674	      0.62878772
      0.31250000	      3.07544119	     -4.18114966	      0.55433733	     -0.34145865	      1.05577008	      0.36943194	      9.11899309	      0.12323805	    -10.40445541	    -60.64704282	      2.90491219	      6.69124135	     15.73283545	      6.58386562	     -3.65774583	      1.20108327	    -20.77621963	      0.00000000	      0.00000000	      0.00000000	      0.00000000	      0.00000000	      0.00000000	      0.00000000	      0.00000000	      0.00000000	      0.00000000	      0.00000000	      0.00000000	      6.50638364	    -23.67722609	     -6.50376806	      0.39589185
      0.31666667	      3.05598373	     -4.25616807	      0.57402371	     -0.33606678	      1.05637512	      0.36919510	      9.64843764	      0.16271102	    -10.55179580	    -60.24576005	      3.15848994	      6.65788633	     15.73514211	      6.16988871	     -3.72475052	      1.20833400	    -20.57919925	      0.00000000	      0.00000000	      0.00000000	      0.00000000	      0.00000000	      0.00000000	      0.00000000	      0.00000000	      0.00000000	      0.00000000	      0.00000000	      0.00000000	      6.64594981	    -23.72428497	     -6.44639740	      0.38182575
      0.32083333	      3.14681941	     -4.50605540	      0.65001084	     -0.33050937	      1.05725192	      0.36893975	      9.96250002	      0.48133191	    -10.66162132	    -59.68814505	      4.21383539	      6.66805472	     15.75352572	      5.62147017	     -3.99250750	      1.24488935	    -20.35585576	      0.00000000	      0.00000000	      0.00000000	      0.00000000	      0.00000000	      0.00000000	      0.00000000	      0.00000000	      0.00000000	      0.00000000	      0.00000000	      0.00000000	      6.74263008	    -23.54532309	     -6.03601360	      0.31119579
      0.32500000	      3.12295573	     -4.58082155	      0.67019022	     -0.32521135	      1.05780719	      0.36868800	     10.48191303	      0.52759980	    -10.80681999	    -59.20804791	      4.48478217	      6.68041186	     15.74638337	      5.22929437	     -4.05650811	      1.24884170	    -20.18504328	      0.00000000	      0.00000000	      0.00000000	      0.00000000	      0.00000000	      0.00000000	      0.00000000	      0.00000000	      0.00000000	      0.00000000	      0.00000000	      0.00000000	      6.88337778	    -23.63336880	     -5.95369482	      0.29085421
